<svg width="354" height="353" viewBox="0 0 354 353" xmlns="http://www.w3.org/2000/svg"><defs><linearGradient x1="5.118%" y1="-1.239%" x2="91.563%" y2="96.741%" id="a"><stop stop-color="#686868" offset="18%"/><stop stop-color="#686868" stop-opacity="0" offset="81%"/></linearGradient><linearGradient x1="91.283%" y1="1.805%" x2="6.416%" y2="99.398%" id="b"><stop stop-color="#686868" offset="2%"/><stop stop-color="#686868" stop-opacity="0" offset="85%"/></linearGradient><linearGradient x1="-10.01%" y1="50.014%" x2="108.753%" y2="50.014%" id="c"><stop stop-color="#686868" stop-opacity="0" offset="4%"/><stop stop-color="#686868" offset="18%"/><stop stop-color="#686868" offset="82%"/><stop stop-color="#686868" stop-opacity="0" offset="97%"/></linearGradient><linearGradient x1="48.988%" y1="87.749%" x2="44.938%" y2="76.495%" id="d"><stop stop-color="#F6EF76" stop-opacity="0" offset="0%"/><stop stop-color="#F6EF76" offset="100%"/></linearGradient></defs><g fill="none" fill-rule="evenodd"><path d="M344.833 120.485h-9.878a4.234 4.234 0 0 0-4.239 4.1v.276a4.234 4.234 0 0 0 4.24 4.1h4.239c1.514 0 2.914.806 3.67 2.114a4.217 4.217 0 0 1 0 4.228 4.241 4.241 0 0 1-3.67 2.113h-50.872a4.233 4.233 0 0 1-4.239-4.227 4.233 4.233 0 0 1 4.24-4.228h6.358a4.234 4.234 0 0 0 4.24-4.1v-.275a4.234 4.234 0 0 0-4.24-4.101h-10.598a4.233 4.233 0 0 1-4.24-4.228 4.233 4.233 0 0 1 4.24-4.227h23.125a4.246 4.246 0 0 0 3.077-1.125 4.222 4.222 0 0 0 1.353-2.976v-.275a4.223 4.223 0 0 0-1.375-2.978 4.246 4.246 0 0 0-3.097-1.101h-1.929a4.233 4.233 0 0 1-4.24-4.228 4.233 4.233 0 0 1 4.24-4.227h28.785C306.063 41.442 252.482 5.785 192.046.64 131.611-4.504 72.744 21.58 36.066 69.754h38.153a4.233 4.233 0 0 1 4.24 4.228 4.233 4.233 0 0 1-4.24 4.228h-3.963a4.247 4.247 0 0 0-3.146 1.085 4.223 4.223 0 0 0-1.39 3.015v.275a4.223 4.223 0 0 0 1.397 3.002 4.247 4.247 0 0 0 3.139 1.078h23.019a4.233 4.233 0 0 1 4.24 4.227 4.233 4.233 0 0 1-4.24 4.228h-61.47a4.233 4.233 0 0 1-4.239-4.228 4.233 4.233 0 0 1 4.24-4.227h-.297a4.247 4.247 0 0 0 3.145-1.085 4.223 4.223 0 0 0 1.39-3.016v-.275a4.223 4.223 0 0 0-1.405-3.01 4.247 4.247 0 0 0-3.152-1.07h-1.504C-16.196 146.9-8.358 238.353 48.838 298.232c57.196 59.879 148.415 72.127 219.455 29.466 71.041-42.66 102.855-128.79 76.54-207.212z" fill="#F7F7F7"/><path d="M294.647 78.21c-6.983.82-7.656 1.492-8.48 8.455-.822-6.963-1.496-7.635-8.478-8.455 6.982-.821 7.656-1.492 8.479-8.456.823 6.964 1.496 7.635 8.479 8.456zM114.467 46.503c-3.491.423-3.816.746-4.24 4.228-.423-3.482-.748-3.805-4.239-4.228 3.491-.423 3.816-.746 4.24-4.228.399 3.482.748 3.805 4.24 4.228zM218.335 101.461c-3.491.423-3.815.746-4.24 4.228-.423-3.482-.747-3.805-4.239-4.228 3.492-.423 3.816-.746 4.24-4.227.399 3.481.748 3.804 4.24 4.227zM254.371 38.048c-3.491.423-3.815.746-4.24 4.227-.423-3.481-.747-3.804-4.239-4.227 3.492-.423 3.816-.746 4.24-4.228.399 3.482.748 3.805 4.24 4.228zM313.725 158.533c-3.492.423-3.816.746-4.24 4.227-.424-3.481-.748-3.804-4.24-4.227 3.492-.423 3.816-.746 4.24-4.228.399 3.482.748 3.805 4.24 4.228zM55.114 145.85c-6.983.82-7.656 1.492-8.48 8.455-.822-6.963-1.496-7.634-8.478-8.455 6.982-.82 7.656-1.492 8.479-8.455.823 6.963 1.496 7.635 8.479 8.455zM169.58 16.91c-6.982.82-7.655 1.492-8.478 8.455-.823-6.963-1.497-7.634-8.48-8.455 6.983-.82 7.657-1.492 8.48-8.455.823 6.963 1.496 7.635 8.479 8.455z" fill="#B8B9B9"/><path d="M131.425 310.725a4.22 4.22 0 0 1 4.222-4.228h86.946a4.228 4.228 0 0 1 4.221 4.228 4.22 4.22 0 0 1-4.221 4.227h-86.946a4.228 4.228 0 0 1-4.222-4.227z" fill="#000" fill-rule="nonzero" opacity=".03"/><g transform="translate(133.545 29.593)"><path d="M41.696 1.057c-15.22 0-27.557 12.303-27.557 27.479v4.227a27.282 27.282 0 0 0 5.872 16.91h43.37a27.282 27.282 0 0 0 5.872-16.91v-4.227a27.44 27.44 0 0 0-8.072-19.43 27.597 27.597 0 0 0-19.485-8.05z" fill="#EBEBEB"/><path d="M41.696 1.057c-15.22 0-27.557 12.303-27.557 27.479v4.227a27.282 27.282 0 0 0 5.872 16.91h43.37a27.282 27.282 0 0 0 5.872-16.91v-4.227a27.44 27.44 0 0 0-8.072-19.43 27.597 27.597 0 0 0-19.485-8.05z" stroke="#686868"/><path d="M67.218 24.308H16.153a15.836 15.836 0 0 0-11.199 4.656A15.746 15.746 0 0 0 .36 40.162v5.01c.04.525.302 1.009.721 1.331 3.519-2.96 20.35-5.2 40.615-5.2s37.095 2.24 40.614 5.2c.419-.322.68-.806.721-1.332v-5.01a15.746 15.746 0 0 0-4.602-11.204 15.836 15.836 0 0 0-11.211-4.649z" fill="#EBEBEB"/><path d="M67.218 24.308H16.153a15.836 15.836 0 0 0-11.199 4.656A15.746 15.746 0 0 0 .36 40.162v5.01c.04.525.302 1.009.721 1.331 3.519-2.96 20.35-5.2 40.615-5.2s37.095 2.24 40.614 5.2c.419-.322.68-.806.721-1.332v-5.01a15.746 15.746 0 0 0-4.602-11.204 15.836 15.836 0 0 0-11.211-4.649z" stroke="#686868" stroke-linejoin="round"/><rect stroke="#686868" stroke-width=".5" fill="#F1E48F" fill-rule="nonzero" transform="rotate(90 12.549 33.82)" x="9.369" y="30.65" width="6.359" height="6.341" rx="1.5"/><rect stroke="#686868" stroke-width=".5" fill="#F1E48F" fill-rule="nonzero" transform="rotate(90 27.387 31.707)" x="24.208" y="28.536" width="6.359" height="6.341" rx="1.5"/><rect stroke="#686868" stroke-width=".5" fill="#F1E48F" fill-rule="nonzero" transform="rotate(90 42.226 31.707)" x="39.046" y="28.536" width="6.359" height="6.341" rx="1.5"/><rect stroke="#686868" stroke-width=".5" fill="#F1E48F" fill-rule="nonzero" transform="rotate(90 57.064 31.707)" x="53.884" y="28.536" width="6.359" height="6.341" rx="1.5"/><rect stroke="#686868" stroke-width=".5" fill="#F1E48F" fill-rule="nonzero" transform="rotate(90 71.902 33.82)" x="68.723" y="30.65" width="6.359" height="6.341" rx="1.5"/><path d="M83.073 46.503c0 2.875-18.505 5.2-41.356 5.2-22.851 0-41.357-2.41-41.357-5.2s18.506-6.49 41.357-6.49c22.85 0 41.356 3.53 41.356 6.49z" stroke="#686868" fill="#B8B9B9"/></g><g><path fill="url(#a)" fill-rule="nonzero" d="M178.335 187.957l1.908-.782-13.29-31.644-2.036.529z" transform="translate(82.67 71.868)"/><path fill="url(#b)" fill-rule="nonzero" d="M1.929 239.047l1.971.676 15.538-45.679-2.416.613z" transform="translate(82.67 71.868)"/><path d="M103.423 4.523l-.339-.295a15.867 15.867 0 0 0-10.43-3.044c-4.769 0-8.902 1.29-10.789 3.382l-.297.317-64.61 189.774 2.417-.634L83.37 5.897c1.42-1.585 5.024-2.705 9.242-2.705a14.21 14.21 0 0 1 9.137 2.536L164.98 156.06l2.12-.529L103.593 4.925l-.17-.402z" fill="url(#c)" fill-rule="nonzero" transform="translate(82.67 71.868)"/><path d="M186.094 76.392l-.34-.296a15.867 15.867 0 0 0-10.429-3.044c-4.77 0-8.903 1.29-10.79 3.382l-.296.317-64.61 189.775 2.416-.635 63.996-188.125c1.42-1.586 5.024-2.706 9.242-2.706a14.21 14.21 0 0 1 9.136 2.537l63.233 150.331 2.12-.528-63.509-150.607-.17-.401z" fill="#686868" fill-rule="nonzero"/><path d="M102.363 5.284h-.106a1.961 1.961 0 0 0-.127-.591l-.19-.465c-1.04-1.818-4.77-3.192-9.243-3.192-5.278 0-9.56 1.881-9.56 4.227h-.212L1.081 246.55l183.338-46.08L102.363 5.284z" opacity=".6" transform="translate(82.67 73.982)" fill="url(#d)"/><g opacity=".5" stroke="#E5BE60" stroke-width=".5"><path d="M135.792 210.49l-9.073 27.901M187.832 113.488l6.592 19.067M168.373 88.926l-1.95 8.308M171.997 130.99l-.487 15.727M227.917 211.124l11.065 29.043M181.388 86.115l2.374 6.954M158.77 123.022l-4.282 14.14"/></g></g><g fill-rule="nonzero" stroke="#686868"><path d="M216.216 226.28l3.137-6.215 6.36-14.564c.89-2.452-1.06-5.919-4.368-8.223a84 84 0 0 0-37.52-12.217 82.099 82.099 0 0 0-38.77 5.39c-3.667 1.69-6.21 4.756-5.766 7.335l3.604 15.451 1.971 6.68 71.352 6.362zM143.275 249.002l.466 11.267c.02.322.271.582.593.613l1.442.127c.334.027.636-.2.7-.529l2.246-11.055a.654.654 0 0 0-.572-.782l-4.24-.38a.658.658 0 0 0-.635.74zM207.185 254.71l.467 11.266c.02.322.271.582.593.613l1.463.127c.334.027.636-.2.7-.529l2.246-11.034a.654.654 0 0 0-.572-.782l-4.24-.38a.658.658 0 0 0-.657.719zM194.128 244.5l.53 10.358c.01.326.267.59.593.613l1.484.126a.636.636 0 0 0 .678-.507l2.12-10.104a.633.633 0 0 0-.572-.782l-4.24-.38a.637.637 0 0 0-.593.676zM158.834 240.61l.572 11.035c.01.353.283.644.636.676l1.378.127a.7.7 0 0 0 .763-.55l2.29-10.759-5.64-.528z" fill="#B8B9B9"/><path d="M177.911 252.765c7.568.676 21.643 1.69 26.031 1.078a5.526 5.526 0 0 1 2.31.169c1.673.438 3.384.714 5.11.824 3.9.36 5.002 0 5.066-.782.063-.782 4.663-32.932 5.723-36.674 1.06-3.741 3.328-10.103 3.73-11.203.403-1.099.53-4.333-3.73-4.713a6.36 6.36 0 0 0-6.529 4.08c-1.802 2.98-5.617 17.332-6.105 20.862l-.636 4.46a5.635 5.635 0 0 1-6.084 4.82l-45.935-4.08a5.628 5.628 0 0 1-5.13-5.834l.17-4.502c.148-3.573-1.06-18.369-2.29-21.624a6.353 6.353 0 0 0-5.786-5.179c-4.24-.38-4.685 2.833-4.515 3.974.17 1.141 1.293 7.8 1.674 11.69.382 3.888-.848 36.398-.911 37.117-.064.719.954 1.31 4.854 1.67 1.71.198 3.435.234 5.151.106a5.611 5.611 0 0 1 2.332.253c4.133 1.353 17.382 2.79 24.928 3.446l.572.042z" fill="#EBEBEB"/><path d="M205.002 236.51s-6.571 1.12-25.437-.55c-18.866-1.67-25.034-3.952-25.034-3.952a3.427 3.427 0 0 1-3.032-3.72l.742-8.265a3.431 3.431 0 0 1 3.71-3.087c8.48-.47 16.985-.286 25.437.55 8.432.69 16.8 2.012 25.034 3.953a3.427 3.427 0 0 1 3.095 3.699l-.742 8.265a3.421 3.421 0 0 1-1.234 2.341 3.44 3.44 0 0 1-2.539.766z" fill="#EBEBEB"/></g><g fill="#F1E48F" fill-rule="nonzero" opacity=".3"><path d="M208.16 267.667a1.714 1.714 0 0 1-1.547-1.628l-.445-10.907h-.212a4.484 4.484 0 0 0-1.272-.19h-.593a32.056 32.056 0 0 1-4.113.19h-1.462v.233a1.716 1.716 0 0 1-1.675 1.353l-1.632-.148a1.714 1.714 0 0 1-1.548-1.586c-6.656-.296-13.715-.909-15.813-1.099h-.551c-2.353-.211-8.267-.76-14.097-1.522a1.78 1.78 0 0 1-1.695 1.247l-1.527-.126a1.778 1.778 0 0 1-1.61-1.67v-.275a45.22 45.22 0 0 1-6.233-1.29 4.484 4.484 0 0 0-1.42-.232h-.996l-2.12 10.569c-.16.796-.86 1.37-1.675 1.374l-1.61-.127a1.714 1.714 0 0 1-1.57-1.628l-.444-10.674c-1.484-.254-3.37-.846-3.223-2.473 0-.254 1.272-33.06.912-36.907-.318-3.36-1.208-8.878-1.547-10.95l-.17-.506a4.553 4.553 0 0 1 0-.761c-.424-3.023 2.12-6.342 6.36-8.455a79.179 79.179 0 0 1 31.18-5.856c2.693 0 5.428.127 8.12.36a84.063 84.063 0 0 1 38.05 12.408 10.864 10.864 0 0 1 4.98 7.398 4.933 4.933 0 0 1 0 2.727l-.232.634c-.7 1.987-2.565 7.25-3.477 10.569-.911 3.318-5.532 34.877-5.68 36.483-.15 1.607-2.735 1.86-3.732 1.86h-.19l-2.12 10.4c-.16.796-.86 1.37-1.675 1.374l-1.696-.169z"/><path d="M175.792 184.701c2.565 0 5.257.106 8.034.36a84 84 0 0 1 37.52 12.217 9.807 9.807 0 0 1 4.557 6.701c.198.69.198 1.423 0 2.114-.382 1.099-2.671 7.461-3.73 11.203-1.06 3.741-5.66 35.934-5.724 36.674-.064.74-.7.909-2.692.909h-1.103a.632.632 0 0 1 0 .232l-2.247 11.034a.657.657 0 0 1-.636.529l-1.462-.127a.656.656 0 0 1-.594-.613l-.466-11.267a.633.633 0 0 1 .127-.401l-1.08-.275a5.59 5.59 0 0 0-1.57-.233h-.741c-1.317.145-2.64.209-3.964.19h-2.375l-.233 1.079a.636.636 0 0 1-.636.507l-1.483-.127a.635.635 0 0 1-.594-.613v-.951c-5.639-.233-12.295-.74-16.725-1.142h-.551c-4.112-.359-9.92-.95-15.008-1.648l-.17.803a.7.7 0 0 1-.7.55l-1.377-.127a.698.698 0 0 1-.636-.677v-.993a50.342 50.342 0 0 1-6.931-1.395 5.61 5.61 0 0 0-1.739-.275H148.87c.04.124.04.257 0 .38l-2.246 11.034a.657.657 0 0 1-.636.529l-1.442-.127a.656.656 0 0 1-.593-.613l-.466-11.266a.653.653 0 0 1 0-.254c-2.565-.36-3.307-.888-3.265-1.48.043-.592 1.272-33.228.912-37.118-.36-3.889-1.484-10.568-1.675-11.689a3.33 3.33 0 0 1 0-.655c-.445-2.558 2.12-5.644 5.766-7.335a79.03 79.03 0 0 1 30.736-5.75l-.17.106zm.17-2.219a80.368 80.368 0 0 0-31.818 6.045c-4.6 2.114-7.462 5.94-6.995 9.386a5.185 5.185 0 0 0 0 .866l.105.698c.34 2.113 1.23 7.546 1.527 10.864.296 3.32-.806 35.153-.912 36.738-.19 2.114 1.632 2.98 3.265 3.403l.402 9.871a2.773 2.773 0 0 0 2.608 2.643l1.441.126h.255a2.775 2.775 0 0 0 2.713-2.113l1.95-9.893h.127c.367 0 .732.056 1.081.17 1.856.54 3.747.95 5.66 1.225a2.839 2.839 0 0 0 2.438 1.924l1.356.127h.255a2.843 2.843 0 0 0 2.29-1.163c5.616.719 11.149 1.226 13.396 1.437h.551c2.014.17 8.628.74 15.072 1.057a2.776 2.776 0 0 0 2.268 1.628l1.484.127h.254a2.778 2.778 0 0 0 2.48-1.564h.678c1.417.019 2.833-.052 4.24-.212h.911l.424 10.104a2.772 2.772 0 0 0 2.523 2.642l1.463.127h.402a2.775 2.775 0 0 0 2.714-2.114l1.95-9.554c2.565-.148 3.943-1.078 4.112-2.811.17-1.734 4.685-32.87 5.66-36.294.975-3.424 2.756-8.455 3.455-10.42l.233-.677a5.945 5.945 0 0 0 .127-3.255 11.985 11.985 0 0 0-5.532-8.075 85.188 85.188 0 0 0-38.559-12.683 89.197 89.197 0 0 0-8.224-.359l.17-.021z"/></g></g></svg>
